<svg width="13" height="11" viewBox="0 0 13 11" fill="none" xmlns="http://www.w3.org/2000/svg">
<path d="M12.1377 1.56406C11.6987 1.75864 11.2269 1.89011 10.731 1.94954C11.2427 1.64336 11.6255 1.16146 11.808 0.59378C11.3273 0.879333 10.8011 1.08034 10.2524 1.18804C9.88345 0.794075 9.39468 0.532944 8.86213 0.445201C8.32951 0.357451 7.78284 0.447994 7.307 0.702774C6.83114 0.957547 6.45271 1.3623 6.23045 1.85419C6.0082 2.34608 5.95456 2.89759 6.07786 3.4231C5.10374 3.37418 4.15079 3.12099 3.28085 2.67995C2.41091 2.23892 1.64343 1.61988 1.02822 0.863035C0.817857 1.2259 0.696904 1.64662 0.696904 2.09469C0.696667 2.49805 0.795998 2.89522 0.986085 3.25099C1.17616 3.60675 1.45112 3.9101 1.78656 4.13411C1.39754 4.12173 1.01711 4.01661 0.676922 3.82751V3.85906C0.676883 4.42479 0.872571 4.97311 1.23078 5.41097C1.589 5.84884 2.08767 6.1493 2.64219 6.26135C2.28131 6.35902 1.90296 6.3734 1.5357 6.30342C1.69215 6.7902 1.99692 7.21587 2.4073 7.52084C2.8177 7.8258 3.31319 7.99477 3.8244 8.00416C2.95659 8.6854 1.88485 9.05498 0.78157 9.05332C0.586142 9.0534 0.390873 9.04196 0.196777 9.01916C1.31666 9.73922 2.62028 10.1213 3.95167 10.1198C8.45856 10.1198 10.9224 6.38704 10.9224 3.14963C10.9224 3.04445 10.9198 2.93822 10.915 2.83304C11.3943 2.48647 11.808 2.05729 12.1367 1.56563L12.1377 1.56406Z" fill="black"/>
</svg>
