<svg width="11" height="10" viewBox="0 0 11 10" fill="none" xmlns="http://www.w3.org/2000/svg">
<path fill-rule="evenodd" clip-rule="evenodd" d="M10.3245 2.319C10.204 1.79101 9.84749 1.3745 9.39417 1.23145C8.5743 0.975342 5.28483 0.975342 5.28483 0.975342C5.28483 0.975342 1.99693 0.975342 1.17549 1.23145C0.723741 1.37239 0.367185 1.7889 0.245177 2.319C0.0258789 3.27718 0.0258789 5.27822 0.0258789 5.27822C0.0258789 5.27822 0.0258789 7.27925 0.245177 8.23743C0.365607 8.76543 0.722164 9.18193 1.17549 9.32498C1.99693 9.58109 5.28483 9.58109 5.28483 9.58109C5.28483 9.58109 8.5743 9.58109 9.39417 9.32498C9.84591 9.18404 10.2025 8.76753 10.3245 8.23743C10.5438 7.27925 10.5438 5.27822 10.5438 5.27822C10.5438 5.27822 10.5438 3.27718 10.3245 2.319ZM4.23409 6.8559L6.96664 5.27822L4.23409 3.70053V6.8559Z" fill="black"/>
</svg>
