<svg width="12" height="12" viewBox="0 0 12 12" fill="none" xmlns="http://www.w3.org/2000/svg">
<path fill-rule="evenodd" clip-rule="evenodd" d="M3.78093 1.54541H8.51872C9.82399 1.54541 10.8826 2.60351 10.8826 3.90983V8.64762C10.8826 9.95289 9.82451 11.0115 8.51819 11.0115H3.78093C2.47513 11.0115 1.4165 9.95342 1.4165 8.6471V3.90983C1.4165 2.60404 2.4746 1.54541 3.78093 1.54541ZM8.75221 3.49806C8.6544 3.49859 8.57499 3.578 8.57499 3.67582C8.57499 3.77363 8.65492 3.85304 8.75274 3.85304C8.85056 3.85304 8.92997 3.77363 8.92997 3.67582C8.93049 3.57747 8.85056 3.49806 8.75221 3.49806ZM7.48828 4.93976C8.22763 5.6791 8.22763 6.87783 7.48828 7.61718C6.74892 8.35654 5.5502 8.35654 4.81086 7.61718C4.07151 6.87783 4.07151 5.6791 4.81086 4.93976C5.5502 4.20041 6.74892 4.20041 7.48828 4.93976Z" stroke="black" stroke-width="1.18326" stroke-linecap="round" stroke-linejoin="round"/>
</svg>
