<svg width="78" height="39" viewBox="0 0 78 39" fill="none" xmlns="http://www.w3.org/2000/svg">
<path d="M3.11293 2.89702C3.1136 2.80511 3.1883 2.73096 3.28021 2.73096H18.6726C18.7171 2.73096 18.7597 2.74868 18.7911 2.78021L36.3569 20.4227C36.3878 20.4537 36.4052 20.4956 36.4056 20.5393L36.545 36.0991C36.5458 36.1926 36.4699 36.2686 36.3765 36.2679L20.9548 36.1528C20.9111 36.1524 20.8692 36.135 20.8382 36.1042L3.04991 18.4388C3.01799 18.4071 3.00018 18.3639 3.00051 18.3189L3.11293 2.89702Z" stroke="#FF4D00" stroke-width="5.18569"/>
<path d="M41.7809 2.89684C41.7816 2.80493 41.8563 2.73077 41.9482 2.73077H57.3406C57.3851 2.73077 57.4278 2.7485 57.4592 2.78003L75.0248 20.4226C75.0556 20.4535 75.0731 20.4954 75.0735 20.5391L75.2129 36.099C75.2137 36.1924 75.1378 36.2684 75.0443 36.2677L59.6229 36.1526C59.5791 36.1522 59.5373 36.1348 59.5062 36.104L41.7179 18.4386C41.686 18.4069 41.6682 18.3637 41.6685 18.3187L41.7809 2.89684Z" stroke="#FF4D00" stroke-width="5.18569"/>
</svg>
