<svg width="635" height="302" viewBox="0 0 635 302" fill="none" xmlns="http://www.w3.org/2000/svg">
<path d="M83.3506 259.517V204.566C83.3506 198.101 87.682 194.868 93.0478 194.868H118.907C124.273 194.868 128.604 198.101 128.604 204.566V259.517H83.3506Z" stroke="#FF4D00" stroke-width="6.46483" stroke-linecap="round" stroke-linejoin="round"/>
<path d="M78.502 259.517H133.453" stroke="#FF4D00" stroke-width="6.46483" stroke-linecap="round" stroke-linejoin="round"/>
<path d="M99.1571 220.729H112.83C116.192 220.729 118.939 219.113 118.939 214.62V210.644C118.939 206.151 116.192 204.534 112.83 204.534H99.1571C95.7954 204.534 93.0479 206.151 93.0479 210.644V214.62C93.0479 219.113 95.7954 220.729 99.1571 220.729Z" stroke="#FF4D00" stroke-width="6.46483" stroke-linecap="round" stroke-linejoin="round"/>
<path d="M93.0479 230.425H102.745" stroke="#FF4D00" stroke-width="6.46483" stroke-linecap="round" stroke-linejoin="round"/>
<path d="M128.604 240.155L143.15 240.123V220.728L136.686 217.496" stroke="#FF4D00" stroke-width="6.46483" stroke-linecap="round" stroke-linejoin="round"/>
<path d="M286.014 64.4527C286.559 76.0812 289.966 85.4839 296.416 93.2967C306.682 105.697 321.581 111.966 337.207 110.376C348.245 109.24 357.375 104.971 365.188 97.294C367.368 95.1137 369.685 92.9788 370.32 92.5245C372.592 90.8893 376.498 91.8886 377.815 94.4323C378.633 96.0222 378.724 98.6567 377.952 100.019C376.453 102.881 370.003 108.968 364.87 112.375C355.694 118.371 345.883 121.55 334.89 122.004C311.951 122.958 291.011 110.285 280.518 89.2086C277.929 84.0303 276.339 78.8066 275.158 71.5843L274.885 69.9036H268.753C263.575 69.9036 262.349 69.7673 260.895 68.9951C259.123 68.1321 257.67 65.8609 257.67 64.0439C257.67 62.3633 259.351 59.6378 260.713 59.0928C262.848 58.2751 263.484 58.2297 274.749 58.1843H285.696L286.014 64.4527ZM323.035 124.23C332.619 128.182 333.891 141.4 325.215 147.305C316.357 153.301 304.91 146.942 304.91 136.086C304.91 126.956 314.495 120.733 323.035 124.23ZM354.922 124.457C359.555 126.456 362.916 132.134 362.462 137.176C362.008 142.173 359.464 146.034 355.104 148.214C346.564 152.575 336.253 146.124 336.253 136.404C336.253 128.863 342.975 122.595 350.289 123.276C351.606 123.413 353.695 123.958 354.922 124.457Z" fill="#FF4D00"/>
<path d="M315.268 131.951C314.586 132.315 313.678 133.223 313.314 133.95C310.907 138.583 315.722 143.398 320.355 140.991C322.263 140.037 323.08 138.583 323.08 136.312C323.08 134.631 322.808 134.041 321.536 132.769C320.31 131.542 319.628 131.225 318.266 131.225C317.266 131.27 315.949 131.542 315.268 131.951Z" fill="black"/>
<path d="M346.428 132.087C345.111 132.905 343.976 134.949 343.976 136.539C343.976 137.856 345.384 140.127 346.656 140.9C349.517 142.58 352.924 141.354 354.241 138.22C355.104 136.13 354.605 134.177 352.742 132.587C350.925 130.952 348.563 130.77 346.428 132.087Z" fill="black"/>
<g clip-path="url(#clip0_94_57)">
<path d="M502.641 204.335V156.311C502.641 154.719 503.273 153.192 504.399 152.066C505.525 150.94 507.052 150.308 508.644 150.308H538.659C540.251 150.308 541.778 150.94 542.904 152.066C544.03 153.192 544.662 154.719 544.662 156.311V204.335L535.657 198.332L529.654 204.335L523.651 198.332L517.648 204.335L511.645 198.332L502.641 204.335Z" stroke="#FF4D00" stroke-width="6.00306" stroke-linecap="round" stroke-linejoin="round"/>
<path d="M529.655 165.315H522.151C520.957 165.315 519.811 165.79 518.967 166.634C518.123 167.478 517.648 168.623 517.648 169.818C517.648 171.012 518.123 172.157 518.967 173.001C519.811 173.846 520.957 174.32 522.151 174.32H525.152C526.346 174.32 527.492 174.794 528.336 175.639C529.18 176.483 529.655 177.628 529.655 178.822C529.655 180.016 529.18 181.161 528.336 182.006C527.492 182.85 526.346 183.324 525.152 183.324H517.648M523.651 183.324V187.827M523.651 160.813V165.315" stroke="#FF4D00" stroke-width="6.00306" stroke-linecap="round" stroke-linejoin="round"/>
</g>
<defs>
<clipPath id="clip0_94_57">
<rect width="72.0367" height="72.0367" fill="white" transform="translate(487.633 141.303)"/>
</clipPath>
</defs>
</svg>
